<?xml version="1.0" encoding="utf-8"?>
<!-- Generator: Adobe Illustrator 27.0.0, SVG Export Plug-In . SVG Version: 6.00 Build 0)  -->
<svg version="1.1" id="Layer_1" xmlns="http://www.w3.org/2000/svg" xmlns:xlink="http://www.w3.org/1999/xlink" x="0px" y="0px"
	 viewBox="0 0 152 36" style="enable-background:new 0 0 152 36;" xml:space="preserve">
<style type="text/css">
	.st0{fill:#F9FAF9;}
	.st1{fill:#1F1F1E;}
	.st2{fill:#05AFCB;}
	.st3{fill:#0B0B0B;}
	.st4{fill:#48359D;}
	.st5{fill:#05AFCB;stroke:#000000;stroke-width:0.25;stroke-miterlimit:10;}
	.st6{fill:#48359D;stroke:#000000;stroke-width:0.25;stroke-miterlimit:10;}
</style>
<path class="st0" d="M0.9,18.3c0-0.1,0-0.2,0-0.2c0.1-0.1,0.1,0,0.1,0.1C0.9,18.3,0.9,18.3,0.9,18.3z"/>
<g>
	<path class="st1" d="M18.1,36c-9.8,0-18-7.7-18-18.1C0.1,7.3,9.1-0.1,18.3,0c9.8,0,17.9,8.3,17.8,18.1C36,28,28.1,36,18.1,36z
		 M18.4,35.6c9.3,0,17.5-7.6,17.5-17.9c0-9.3-7.9-17.7-18-17.5C9.4,0.4,0.5,7.2,0.4,17.8C0.4,28.3,8.8,35.8,18.4,35.6z"/>
	<path class="st0" d="M18.7,17.7c-0.3,0.3-0.6,0.4-1.1,0.5C18,18.1,18.3,17.9,18.7,17.7L18.7,17.7z"/>
	<polygon class="st0" points="18.1,18 18.1,17.9 18.1,18 	"/>
	<g>
		<path class="st2" d="M9.5,19.8c0.3-2.6,1.7-4.6,3.9-6c0.5-0.3,0.5-0.3,0.1-0.7c-1.8-2-1-5.1,1.8-5.9c0.3-0.1,0.6-0.1,0.8-0.1
			c1.3,0,2.5,0,3.8,0c1.6,0,2.8,0.7,3.4,2.1c0.6,1.4,0.4,2.8-0.6,3.9c-0.3,0.3-0.3,0.4,0.1,0.6c2.3,1.4,3.8,3.3,4.2,6
			c-1.2,0.1-2.4,0-3.6,0c-0.4,0-0.6-0.1-0.8-0.4c-0.4-0.9-0.8-1.7-1.4-2.5c-0.2-0.3-0.5-0.5-0.8-0.4c-0.4,0.1-0.5,0.4-0.6,0.8
			c-0.2,0.8-0.4,1.5-0.6,2.2c-0.2,0.6-0.4,1.2-0.6,1.8c-0.3-1.2-0.5-2.4-0.8-3.6c-0.1-0.5-0.2-1-0.6-1.3c-0.5-0.6-1.4-0.5-1.7,0.2
			c-0.1,0.2-0.2,0.5-0.3,0.8c-0.2,0.7-0.4,1.4-0.5,2.1c-0.1,0.3-0.2,0.4-0.5,0.4c-0.9,0-1.8,0-2.6,0C10.9,19.9,10.2,20,9.5,19.8z
			 M22.2,13.7c-0.4,0.2-0.8,0.4-1.2,0.5C21.5,14.2,21.8,14.1,22.2,13.7L22.2,13.7L22.2,13.7z M18.3,9.1C18.3,9.1,18.3,9.1,18.3,9.1
			c-0.6,0-1.1,0-1.7,0c-0.9,0-1.5,0.4-1.8,1.2c-0.3,0.7,0,1.6,0.5,2.1c0.2,0.2,0.4,0.3,0.7,0.2c1.5-0.4,3-0.4,4.6,0
			c0.1,0,0.2,0.1,0.4,0c0.6-0.4,1-1.4,0.7-2.2c-0.2-0.8-0.8-1.3-1.7-1.3C19.4,9.1,18.8,9.1,18.3,9.1z M15.8,14.3
			c-0.5-0.1-1-0.3-1.5-0.5C14.7,14.1,15.2,14.3,15.8,14.3z"/>
		<path class="st2" d="M27.1,21.5c-0.3,3.6-3.5,6.7-7.5,7.2c-2.2,0.3-4.2-0.1-6.1-1.2c-2.3-1.4-3.7-3.4-4.1-6c1.1,0,2.2,0,3.3,0
			c0.3,0,0.7,0,1,0.1c1.3,0.3,2.3-0.3,2.6-1.6c0-0.1,0-0.3,0.2-0.4c0.2,0.3,0.2,0.7,0.3,1.1c0.2,0.9,0.3,1.8,0.8,2.6
			c0.5,0.9,1.2,1,1.8,0.1c0.5-0.7,0.8-1.5,1.1-2.3c0.1-0.3,0.2-0.7,0.4-1.1c0.2,0.3,0.3,0.5,0.5,0.8c0.5,0.7,1.1,1.3,2.1,1
			C24.7,21.3,25.9,21.5,27.1,21.5z"/>
		<path class="st3" d="M27.1,21.5c-1.2,0-2.4-0.1-3.6,0.2c-0.9,0.2-1.6-0.3-2.1-1c-0.2-0.2-0.3-0.4-0.5-0.8
			c-0.1,0.4-0.3,0.7-0.4,1.1c-0.3,0.8-0.7,1.6-1.1,2.3c-0.6,0.9-1.3,0.9-1.8-0.1c-0.4-0.8-0.6-1.7-0.8-2.6c-0.1-0.4-0.1-0.7-0.3-1.1
			c-0.2,0.1-0.2,0.3-0.2,0.4c-0.4,1.3-1.3,1.9-2.6,1.6c-0.3-0.1-0.7-0.1-1-0.1c-1.1,0-2.2,0-3.3,0c-0.3,0-0.6,0-0.9,0
			C8.1,21.5,8,21.3,8,20.9c0-0.2,0.1-0.5,0.1-0.7c0-0.3,0.1-0.5,0.4-0.4c0.3,0.1,0.6,0.1,1,0c0.7,0.1,1.5,0,2.2,0c0.9,0,1.8,0,2.6,0
			c0.3,0,0.4-0.1,0.5-0.4c0.2-0.7,0.3-1.4,0.5-2.1c0.1-0.3,0.2-0.5,0.3-0.8c0.4-0.7,1.2-0.8,1.7-0.2c0.4,0.4,0.5,0.9,0.6,1.3
			c0.2,1.2,0.5,2.4,0.8,3.6c0.2-0.6,0.4-1.2,0.6-1.8c0.2-0.7,0.4-1.5,0.6-2.2c0.1-0.3,0.2-0.7,0.6-0.8c0.4-0.1,0.6,0.2,0.8,0.4
			c0.6,0.7,1,1.6,1.4,2.5c0.2,0.4,0.4,0.5,0.8,0.4c1.2-0.1,2.4,0.1,3.6,0c0.2,0,0.4,0.1,0.6-0.1c0.5,0,0.6,0.3,0.6,0.8
			c0,0.2,0,0.3,0,0.5c0,0.4-0.2,0.5-0.5,0.5C27.5,21.4,27.3,21.4,27.1,21.5z"/>
		<path class="st4" d="M27.7,21.5c0.4,0.1,0.5-0.1,0.5-0.5c0-0.2,0-0.3,0-0.5c0.1-0.4,0-0.8-0.6-0.8c0-1.4,0.1-2.8,0.5-4.1
			c0.1-0.5,0.4-0.7,0.9-0.7c0.8,0,1.6,0,2.3,0c0.7,0,0.9,0.2,1.2,0.8c0.3,0.9,0.4,1.8,0.5,2.7c0,1.5,0.1,3,0,4.6
			c0,0.7-0.2,1.4-0.4,2c-0.3,0.7-0.5,0.8-1.2,0.8c-0.8,0-1.6,0-2.4,0c-0.4,0-0.6-0.2-0.8-0.5c-0.4-0.8-0.4-1.7-0.5-2.5
			C27.7,22.4,27.7,22,27.7,21.5z M28.7,16.8c-0.6,2.5-0.3,5-0.1,7.4c0.2-0.3,0.2-0.6,0.2-1c0.1-1.9,0.1-3.9,0-5.8
			C28.9,17.2,28.9,17,28.7,16.8z"/>
		<path class="st4" d="M8.5,19.8c-0.3,0-0.4,0.1-0.4,0.4c0,0.2-0.1,0.5-0.1,0.7c0,0.3,0.1,0.6,0.5,0.5c-0.1,1.1-0.1,2.1-0.3,3.2
			c-0.1,0.2-0.1,0.5-0.2,0.7c-0.2,0.4-0.4,0.6-0.9,0.6c-0.9,0-1.8,0-2.6,0c-0.3,0-0.6-0.2-0.7-0.4c-0.4-0.7-0.5-1.5-0.6-2.2
			c-0.1-1.6-0.1-3.2-0.1-4.8c0-0.9,0.2-1.9,0.5-2.7c0.2-0.6,0.4-0.7,1-0.7c0.8,0,1.6,0,2.4,0c0.6,0,0.8,0.2,1,0.7
			C8.4,17.1,8.5,18.4,8.5,19.8z M7.6,16.6c-0.3,2.5-0.3,5,0,7.5C8.1,21.6,7.9,19.1,7.6,16.6z"/>
		<path class="st2" d="M2.4,21c-0.2,0.1-0.3,0.2-0.2,0.3c0,0.3-0.1,0.4-0.3,0.4c-0.2,0-0.5-0.1-0.5-0.3c-0.1-0.5-0.1-1.1,0-1.6
			c0.1-0.4,0.5-0.4,1,0c0-0.4,0.1-0.7,0.1-1c0-0.1,0-0.3,0.1-0.4C2.6,18.1,2.7,18,2.9,18C3,18.1,3,18.2,3,18.3c0,1.4,0,2.8,0,4.2
			c0,0.2,0,0.3-0.2,0.4c-0.2,0-0.3-0.1-0.3-0.3c-0.1-0.2-0.1-0.5-0.1-0.7C2.4,21.7,2.4,21.3,2.4,21z M2.4,20.3
			C2.4,20.3,2.4,20.3,2.4,20.3c-0.2-0.1-0.1,0-0.1,0c0,0,0,0.1,0.1,0.1C2.4,20.5,2.4,20.4,2.4,20.3z"/>
		<path class="st2" d="M33.3,20.5c0-0.7,0-1.4,0-2.1c0-0.1-0.1-0.3,0.2-0.4c0.2,0,0.4,0.1,0.4,0.3c0,0.2,0.1,0.4,0.1,0.6
			c0,1,0,2.1,0,3.1c0,0.3-0.1,0.5-0.1,0.7c-0.1,0.2-0.2,0.2-0.4,0.2c-0.2,0-0.1-0.2-0.1-0.3C33.2,21.9,33.2,21.2,33.3,20.5
			C33.3,20.5,33.3,20.5,33.3,20.5z"/>
		<path class="st2" d="M35,20.5c0,0.2,0,0.5,0,0.7c0,0.3-0.2,0.4-0.5,0.4c-0.3,0-0.5-0.1-0.5-0.4c0-0.5,0-0.9,0-1.4
			c0-0.3,0.2-0.5,0.5-0.4c0.3,0,0.5,0.2,0.4,0.5C35,20.1,35,20.3,35,20.5C35,20.5,35,20.5,35,20.5z"/>
		<path class="st0" d="M28.7,16.8c0.2,0.2,0.2,0.4,0.2,0.6c0.1,1.9,0.1,3.9,0,5.8c0,0.3-0.1,0.7-0.2,1
			C28.4,21.8,28.1,19.3,28.7,16.8z M28.6,22.6C28.7,22.6,28.7,22.6,28.6,22.6c0.1-1.5,0.1-2.9,0.1-4.4c0,0-0.1,0-0.1,0
			C28.6,19.6,28.6,21.1,28.6,22.6z"/>
		<path class="st0" d="M7.6,16.6c0.4,2.5,0.6,5,0,7.5C7.3,21.6,7.2,19.1,7.6,16.6z M7.6,18.2c0,1.5-0.1,3,0.1,4.6
			C7.7,21.2,7.6,19.7,7.6,18.2z"/>
		<path class="st0" d="M2.4,20.3c0,0.1,0,0.1-0.1,0.2c-0.1,0-0.1-0.1-0.1-0.1C2.3,20.3,2.3,20.2,2.4,20.3
			C2.4,20.3,2.4,20.3,2.4,20.3z"/>
		<path class="st4" d="M28.6,22.6c0-1.5,0-2.9,0-4.4c0,0,0.1,0,0.1,0C28.7,19.6,28.7,21.1,28.6,22.6C28.7,22.6,28.7,22.6,28.6,22.6z
			"/>
		<path class="st4" d="M7.6,18.2c0,1.5,0.1,3,0.1,4.6C7.4,21.2,7.6,19.7,7.6,18.2z"/>
	</g>
</g>
<g>
	<path class="st5" d="M51.9,3.6v18c0,3.2-0.6,5.7-1.9,7.6s-2.9,2.8-5,2.8c-2.1,0-3.7-0.9-4.8-2.8s-1.7-4.5-1.7-7.9V3.6h5.5v17.7
		c0,1.7,0.4,2.5,1.2,2.5c0.8,0,1.2-0.8,1.2-2.5V3.6H51.9z"/>
	<path class="st5" d="M65.8,2.9c2.6,0,4.8,1.4,6.7,4.3c1.9,2.9,2.8,6.3,2.8,10.3c0,4.1-0.9,7.5-2.8,10.3c-1.9,2.8-4.2,4.2-6.9,4.2
		c-2.7,0-5-1.4-6.8-4.3S56,21.5,56,17.5c0-4.1,1-7.5,2.9-10.3C60.7,4.4,63.1,2.9,65.8,2.9z M65.7,11.1c-1.1,0-2.1,0.6-2.9,1.9
		s-1.2,2.8-1.2,4.5c0,1.8,0.4,3.3,1.2,4.5c0.8,1.2,1.8,1.9,2.9,1.9c1.1,0,2.1-0.6,2.9-1.9c0.8-1.2,1.2-2.7,1.2-4.5
		c0-1.8-0.4-3.3-1.2-4.5C67.8,11.7,66.8,11.1,65.7,11.1z"/>
	<path class="st5" d="M93,3.6L85,33L77,3.6h6.3l1.7,8.7l1.9-8.7H93z"/>
	<path class="st6" d="M103.8,15.8h5.2c1.1,2.1,1.7,4.3,1.7,6.6c0,2.7-0.7,5-2,6.8c-1.3,1.8-2.9,2.8-4.9,2.8c-2.5,0-4.6-1.4-6.4-4.3
		c-1.7-2.9-2.6-6.3-2.6-10.4c0-4.1,0.9-7.5,2.7-10.3c1.8-2.7,4-4.1,6.7-4.1c0.9,0,1.9,0.3,3,0.8V12c-0.9-0.6-1.7-0.9-2.4-0.9
		c-1.3,0-2.3,0.6-3.2,1.8c-0.8,1.2-1.2,2.8-1.2,4.7c0,2,0.4,3.5,1.1,4.7c0.8,1.2,1.8,1.7,3.1,1.7c0.8,0,1.2-0.4,1.2-1.1
		c0-0.5-0.3-0.8-0.8-0.8h-1.3V15.8z"/>
	<path class="st6" d="M127.8,3.6L122.6,16v15.4h-5.5V16l-5.3-12.3h5.6l2.4,5.7l2.6-5.7H127.8z"/>
	<path class="st6" d="M130.1,31.4v-20c0-2.5,0.5-4.5,1.5-6.1s2.3-2.4,3.9-2.4c1.9,0,3.3,1.3,4.4,3.9c0.6-1.4,1.3-2.4,2-3
		s1.6-0.9,2.6-0.9c1.7,0,2.9,0.8,3.8,2.4c0.9,1.6,1.3,3.8,1.3,6.8v19.3h-5.5v-18c0-0.9,0-1.5-0.1-1.8c-0.1-0.3-0.3-0.4-0.6-0.4
		c-0.5,0-0.8,0.7-0.8,2.1v18.2h-5.5v-18c0-0.9,0-1.5-0.1-1.8c-0.1-0.3-0.3-0.4-0.6-0.4c-0.5,0-0.8,0.7-0.8,2.2v18H130.1z"/>
</g>
</svg>
